<?xml version="1.0" standalone="no"?>
<!DOCTYPE svg PUBLIC "-//W3C//DTD SVG 20010904//EN"
 "http://www.w3.org/TR/2001/REC-SVG-20010904/DTD/svg10.dtd">
<svg version="1.0" xmlns="http://www.w3.org/2000/svg"
 width="260.000000pt" height="260.000000pt" viewBox="0 0 260.000000 260.000000"
 preserveAspectRatio="xMidYMid meet">
<metadata>
Created by potrace 1.14, written by Peter Selinger 2001-2017
</metadata>
<g transform="translate(0.000000,260.000000) scale(0.100000,-0.100000)"
fill="#000000" stroke="none">
<path d="M1025 1910 c-12 -19 6 -30 51 -30 55 0 106 -20 128 -51 14 -21 16
-80 16 -553 0 -513 -1 -531 -20 -572 -13 -26 -32 -46 -50 -54 -42 -18 -117 -4
-147 26 -28 28 -25 46 14 106 30 45 34 114 9 153 -24 37 -98 68 -139 60 -53
-12 -86 -37 -108 -82 -54 -112 41 -269 198 -325 76 -27 223 -30 304 -5 112 34
202 118 236 220 14 45 17 116 22 527 5 388 9 479 20 496 21 31 74 54 127 54
38 0 45 3 42 18 -3 16 -29 17 -350 20 -226 1 -349 -1 -353 -8z"/>
</g>
</svg>
