<?xml version="1.0" standalone="no"?>
<!DOCTYPE svg PUBLIC "-//W3C//DTD SVG 20010904//EN"
 "http://www.w3.org/TR/2001/REC-SVG-20010904/DTD/svg10.dtd">
<svg version="1.0" xmlns="http://www.w3.org/2000/svg"
 width="260.000000pt" height="260.000000pt" viewBox="0 0 260.000000 260.000000"
 preserveAspectRatio="xMidYMid meet">
<metadata>
Created by potrace 1.11, written by Peter Selinger 2001-2013
</metadata>
<g transform="translate(0.000000,260.000000) scale(0.100000,-0.100000)"
fill="#000000" stroke="none">
<path d="M1264 2040 c-30 -12 -71 -64 -79 -100 -16 -75 44 -150 121 -150 84 0
137 49 137 126 0 92 -95 158 -179 124z"/>
<path d="M1210 1115 l0 -496 -25 -24 c-20 -21 -34 -25 -80 -25 l-55 0 0 -85 0
-84 36 -7 c20 -4 65 -4 100 -1 121 9 204 88 224 212 5 33 10 273 10 533 l0
472 -105 0 -105 0 0 -495z"/>
</g>
</svg>
